<?xml version="1.0" encoding="utf-8"?>
<!-- Generator: Adobe Illustrator 22.1.0, SVG Export Plug-In . SVG Version: 6.00 Build 0)  -->
<svg version="1.1" id="图层_1" xmlns="http://www.w3.org/2000/svg" xmlns:xlink="http://www.w3.org/1999/xlink" x="0px" y="0px"
	 viewBox="0 0 568 95.4" style="enable-background:new 0 0 568 95.4;" xml:space="preserve">
<style type="text/css">
	.st0{fill:#FEFEFE;}
	.st1{fill:#3C96FF;}
	.st2{fill:#FFFFFF;}
</style>
<g id="图层_2_1_">
</g>
<g>
	<g>
		<path class="st0" d="M0,65.5c0-12,7.1-22.8,18.1-27.4c11.1-4.7,23.8-2.3,32.3,6.1c1.7,1.7,6,6,6,6s-10.3,10.5-10.9,11
			c-2.1-2.1-5-5.1-7.6-6.7c-9.6-5.9-19.8,0.1-23.4,6.3c-4.3,7.5-2.6,17,4.1,22.2c6.9,5.4,16.5,5,22.8-1.1
			c7.4-7.2,23.3-23.3,23.3-23.3s6.7,6.7,6.9,6.9c-7.5,7.4-15,15.7-23,22.6c-8.7,7.5-18.9,9.1-29.5,5C8.4,89.1,2.1,81,0.3,69.6
			C0,68.2,0,66.9,0,65.5z"/>
		<path class="st0" d="M120.4,65.5c0,17.2-14.5,30.8-31.6,29.6c-7.1-0.5-13.3-3.2-18.5-8.1c-1.9-1.8-4.3-4.3-6.1-6.1
			C64.5,80.5,74.7,70.3,75,70c1.2,1.2,2.9,2.9,4.1,4.1c5.4,5.3,13.2,6.5,19.9,3.1c6.4-3.2,10.3-10.4,9.4-17.3
			c-1-7.6-6.2-13.5-13.6-15c-5.7-1.2-10.9,0.2-15.2,4.2c-2.6,2.4-5.9,5.6-8.3,8.2c-0.2-0.2-6.6-6.6-7-7c3.2-3,6.4-6.8,10-9.3
			c18-12.3,43.2-1,46,20.6C120.3,62.8,120.4,64.2,120.4,65.5z"/>
		<path class="st1" d="M17.5,80.4c-4.7-4.5-5.6-12.9-2.2-18.9c0.7-1.2,2.2-3.1,2.2-3.1s-0.9,1.6-1.2,2.3c-2.2,6,0.6,12.6,5.9,16.1
			s12.3,2.8,16.8-1.7c6.7-6.6,13.4-13.3,20.1-20c0.5-0.5,1-0.9,1-0.9l3.8,3.8c0,0-10,9.9-14.7,14.6c-2.9,2.9-5.7,5.8-8.7,8.7
			c-6.2,6-15.9,6-22.2,0.2C18.1,81.1,17.8,80.7,17.5,80.4L17.5,80.4L17.5,80.4z"/>
		<path class="st1" d="M98.4,47.2c-6-3.1-13.2-2-18.2,2.6c-1.9,1.8-6.1,5.9-8.3,8.1c0.2,0.2,3.4,3.4,3.7,3.7
			c1.7-1.8,4.1-4.2,5.9-5.9c2.7-2.4,5.6-3.7,8.8-3.8c0.2,0,0.5,0,0.7,0c7.5,0,13.6,6.1,13.6,13.6c0,3.1-1,5.9-2.7,8.2
			c0.4-0.3,0.6-0.5,0.8-0.7C110.2,65.6,108.7,52.5,98.4,47.2z"/>
	</g>
	<path class="st2" d="M60.2,17c9.3,0,17,6.6,18.7,15.3c3.3-1.2,6.7-1.9,10.4-2c-0.3-1.4-0.7-2.8-1.1-4.1l5.4-4
		c-0.3-0.7-0.6-1.5-1-2.2l-2.2-3.8c-0.5-0.7-1-1.4-1.5-2.1l-6.2,2.6c-1-1.2-2.1-2.2-3.2-3.2l2.6-6.2c-0.8-0.6-1.6-1.1-2.4-1.7
		l-3-1.7C75.8,3.4,74.9,3,74,2.7l-4,5.4c-1.4-0.5-2.9-0.9-4.4-1.2l-0.8-6.7c-1.5-0.2-3-0.3-4.6-0.3S57,0,55.5,0.2L54.7,7
		c-1.5,0.3-2.9,0.7-4.3,1.2l-4-5.4c-2.9,1.2-5.6,2.8-8.1,4.7l2.6,6.2c-1.1,1-2.2,2-3.2,3.2l-6.2-2.6c-1.9,2.5-3.5,5.2-4.7,8.1l5.4,4
		c-0.5,1.3-0.8,2.6-1.1,4c3.6,0.2,7.1,0.9,10.4,2C43.2,23.6,51,17,60.2,17z"/>
	<path class="st1" d="M60.2,24.4c6.4,0,11.6,5.1,11.7,11.4c1.8-1.1,3.6-2.1,5.6-2.9c-1.5-8.2-8.7-14.4-17.3-14.4
		s-15.8,6.2-17.3,14.4c2,0.8,3.8,1.8,5.6,2.9C48.7,29.4,53.8,24.4,60.2,24.4z"/>
</g>
<g>
	<path class="st2" d="M138.1,31.6v-4.9H152V23h5.5v3.8h12.2V23h5.5v3.8h13.5v4.9h-13.5v2.7h-5.5v-2.7h-12.2v2.5H152v-2.5H138.1z
		 M138.1,71.9v-4.4h5.3V54.6h40.1v12.9h5.3v4.4H138.1z M142.1,51.9v-15h5.3v15H142.1z M149.1,59.1v8.4h6.3v-8.4H149.1z M153.1,52.3
		V35.4h5.5v16.9H153.1z M164,52.3c-0.6-0.4-1.5-1.1-3-2.1c-0.7-0.4-1.2-0.8-1.5-1.1c3.5-4.1,6-8.7,7.6-13.9l5.5,0.8l-1.3,3h16.5v4.6
		h-18.4C168,46.5,166.1,49.4,164,52.3z M160.4,59.1v8.4h6.1v-8.4H160.4z M179.4,53.8c-3.1-2.5-6-4.6-8.6-6.3l3.2-3.4
		c3.7,2.5,6.6,4.6,8.9,6.1L179.4,53.8z M177.7,59.1h-6.1v8.4h6.1V59.1z"/>
	<path class="st2" d="M193.6,41.3c-0.7-2-1.4-3.6-2.1-4.9c3-3.8,5.5-8.3,7.6-13.5l4.9,0.6c-0.1,0.4-0.4,1-0.6,1.7
		c-0.1,0.3-0.5,1.1-1.1,2.3h8.4v4.2l-3.2,5.7h5.1V62H194V40.9L193.6,41.3z M215.7,70.7c-1.1-1-2.3-1.9-3.6-2.7c0,0.6,0,1.1,0,1.5
		c-7.2,0.7-13.7,1.3-19.6,1.9l-0.6-4.4c3.1-0.3,8.5-0.7,16.2-1.3c1.8-0.1,3.2-0.3,4-0.4c0,1,0,1.8,0,2.3c2.5-3.1,4.7-6.5,6.5-10.1
		l4.2,2.3C221.2,62.8,218.8,66.4,215.7,70.7z M205.8,32.1h-5.9c-1,2-2.1,3.8-3.4,5.5h6.3L205.8,32.1z M198,41.8v6.1h3.6v-6.1H198z
		 M198,51.7v6.1h3.6v-6.1H198z M208.8,41.8h-3.6v6.1h3.6V41.8z M205.2,51.7v6.1h3.6v-6.1H205.2z M214,33.8v-4.9h11.8
		c-0.1-0.6-0.4-1.5-0.8-2.7c-0.4-1.1-0.8-2-1.1-2.5l5.7-0.6c0.1,0.4,0.3,1,0.6,1.7c0.7,1.8,1.1,3.2,1.3,4.2h11.4v4.9H214z M220.1,73
		c-0.3-1.7-0.6-3.4-1.1-5.1c0.6,0,1.3,0.1,2.3,0.2c1,0,1.7,0,2.1,0c1.7,0,2.5-0.8,2.5-2.3V54.6h-9.5V38.2H240v16.5h-8.9v12.9
		c0,3.5-1.7,5.3-5.1,5.5C224.4,73,222.4,73,220.1,73z M221.6,42.6V50h13.3v-7.4H221.6z M239.1,70.2c-0.1-0.4-0.4-1-0.8-1.7
		c-2-3.7-3.7-6.7-5.3-9.1l4.2-2.1c0.8,1.5,1.1,2.1,0.8,1.7c2.2,3.8,4.1,6.8,5.5,8.9L239.1,70.2z"/>
	<path class="st2" d="M254.1,73.6V57.8c-2,1.1-4,2.1-6.1,3c-0.1-0.4-0.4-1.1-0.8-1.9c-0.7-1.4-1.2-2.5-1.5-3.2
		c9.7-3.2,17.8-8.2,24.3-15l6.1,0.2c-0.6,0.6-1,1.1-1.3,1.5c5.5,5.6,12.9,9.8,22.1,12.4c-0.1,0.6-0.4,1.3-0.8,2.1
		c-0.8,1.7-1.3,2.7-1.3,3.2c-2.3-0.8-4.4-1.7-6.3-2.5v16H283v-2.7h-23.2v2.7H254.1z M250.1,47.7c-0.3-0.4-0.7-1.2-1.3-2.3
		c-0.7-1-1.2-1.7-1.5-2.1c6.5-2.5,12.2-5.3,17.3-8.2l3,4C261.4,42.4,255.6,45.3,250.1,47.7z M247.8,38.4v-9.9h21.1
		c0-0.3-0.1-0.6-0.2-1.1c-0.4-2.1-0.8-3.5-1.1-4.2l6.3-0.6c0.4,1.7,0.8,3.7,1.3,5.9h19.6v9.9h-5.7v-5.1h-35.6v5.1H247.8z
		 M271.6,45.8c-3.7,3.4-7.6,6.3-11.8,8.9h23.4C279.4,52.7,275.5,49.7,271.6,45.8z M259.8,59.3v7.4H283v-7.4H259.8z M292.7,47.7
		c-6.3-3.4-12.2-6.3-17.7-8.6l2.7-4c1.1,0.6,2.8,1.3,5.1,2.3c5.6,2.5,9.8,4.5,12.7,5.9L292.7,47.7z"/>
	<path class="st2" d="M301.1,47.7v-4.2H322c0.1-0.4,0.2-1,0.2-1.7c0.1-0.7,0.2-1.3,0.2-1.7h5.7c-0.1,1.3-0.2,2.4-0.2,3.4h7.8
		l-1.5-2.7l5.3-0.8c0.4,1,0.9,2.2,1.5,3.6h8.6v4.2h-20c2.2,3.2,9.4,5.1,21.3,5.5c-0.6,1.4-1.1,2.9-1.7,4.4c-13.2-0.7-21.2-3.4-24-8
		c-2,3.8-9.9,6.6-23.8,8.4c-0.1-0.6-0.4-1.3-0.8-2.3c-0.3-1.1-0.6-1.9-0.8-2.3c12.7-1.3,19.6-3.2,20.9-5.7H301.1z M303.7,39.2V25.5
		h18.8v13.7H303.7z M303.9,73.4V57.6h19v15.8h-5.1v-2.1h-9.1v2.1H303.9z M308.5,29.5v5.7h9.1v-5.7H308.5z M308.7,61.8v5.7h9.1v-5.7
		H308.7z M341.9,73.4v-2.1h-9.1v2.1h-5.1V57.6h19v15.8H341.9z M327.9,39.2V25.5h19v13.7H327.9z M332.8,29.5v5.7h9.3v-5.7H332.8z
		 M332.8,61.8v5.7h9.1v-5.7H332.8z"/>
	<path class="st2" d="M357.3,37.3c-0.8-0.8-2.1-2-3.8-3.4c4.1-3.2,7-6.9,8.9-11l5.5,0.6c-0.6,1.3-1.2,2.4-1.9,3.4H380v4.2h-9.9
		c0.7,0.7,1.5,1.7,2.5,3c0.4,0.4,0.7,0.7,0.8,0.8l-4.6,1.3c-1.1-1.7-2.5-3.4-4.2-5.1h-1.5C361.5,33.2,359.5,35.2,357.3,37.3z
		 M393.5,73.4v-1.9h-27v2.1h-5.7V46.8h-5.3v-9.3h21.5l-1.3-2.7l5.1-0.8l1.5,3.6h20.9v9.3h-5.5v-5.1H361v3.4h36.5v11.6h-31v3.2H399
		v13.5H393.5z M366.5,48.9v3.8h25.3v-3.8H366.5z M393.5,63.9h-27v3.8h27V63.9z M384.3,35.2c-1.5-0.7-3.2-1.3-4.9-1.9
		c3.2-3.8,5.4-7.2,6.5-10.3l5.3,0.6c-0.4,1.1-1,2.3-1.7,3.4h15.2v4.2h-10.1c1.1,1.3,2.2,2.5,3.2,3.8l-4.6,1.3
		c-1.4-1.7-2.7-3.4-4-5.1h-1.9C386.4,32.5,385.4,33.8,384.3,35.2z"/>
	<path class="st2" d="M408.3,31.9v-5.3h16.5v5.3h-5.5v12.4h5.3v5.1h-5.3v12.9l5.5-1.3c0,2,0.1,3.8,0.2,5.5c-0.7,0.1-1.8,0.4-3.4,0.6
		c-5.5,0.8-9.8,1.6-13.1,2.3l-0.8-5.3l6.3-1.1V49.4h-5.3v-5.1h5.3V31.9H408.3z M426.4,61.4v-4.6h12.7v-5.3h-12V25.3h29.3v26.2h-12
		v5.3H457v4.6h-12.7v5.9h14.6v4.4h-35.2v-4.4h15.4v-5.9H426.4z M432.3,30v6.3h6.8V30H432.3z M432.3,40.7v6.1h6.8v-6.1H432.3z
		 M451.1,30h-6.8v6.3h6.8V30z M444.4,40.7v6.1h6.8v-6.1H444.4z"/>
	<path class="st2" d="M464.6,31v-5.5h45.6V31h-19.8v20h22.4v5.5h-22.4v17.1h-5.9V56.5h-22.4V51h22.4V31H464.6z M475.4,48.5
		c-3-3.8-6-7.5-9.3-11.2l4.2-3.4c3.4,3.5,6.5,7.2,9.5,11L475.4,48.5z M498.6,48.7l-4.2-3.6c3.1-3.1,6.3-6.8,9.7-11.2l4.4,3.2
		C505.3,41.2,502,45.1,498.6,48.7z"/>
	<path class="st2" d="M562.3,47.9c-1.3-1.4-2.5-2.7-3.8-4c-14.8,0.3-25.3,0.6-31.6,0.8c-3,0.3-5.3,0.6-7.2,1.1l-2.7-5.7
		c2-0.7,3.9-1.8,5.7-3.4c5.3-4.5,10.1-9.1,14.1-13.9l6.3,2.7c-0.3,0.3-0.7,0.6-1.3,1.1c-6.2,5.8-11.1,10.1-14.8,13.1l26.8-0.8
		l-6.3-6.3l4.2-3.2c5.9,5.5,11,10.5,15.2,15L562.3,47.9z M522,73.6V50h38.8v23.6h-5.9v-3.4h-27.2v3.4H522z M527.7,55.1v10.5h27.2
		V55.1H527.7z"/>
</g>
</svg>
