<?xml version="1.0" encoding="utf-8"?>
<!-- Generator: Adobe Illustrator 22.1.0, SVG Export Plug-In . SVG Version: 6.00 Build 0)  -->
<svg version="1.1" id="图层_1" xmlns="http://www.w3.org/2000/svg" xmlns:xlink="http://www.w3.org/1999/xlink" x="0px" y="0px"
	 viewBox="0 0 500 73.3" style="enable-background:new 0 0 500 73.3;" xml:space="preserve">
<style type="text/css">
	.st0{fill:#D4FBFF;}
	.st1{fill:#FFFFFF;}
	.st2{fill:url(#SVGID_1_);}
	.st3{opacity:0.3;fill:url(#SVGID_2_);enable-background:new    ;}
	.st4{fill:url(#SVGID_3_);}
</style>
<title>白底+文字(1)</title>
<path class="st0" d="M66.6,16.1L39.1,0.3c-1-0.5-2.2-0.5-3.2,0L8.5,16.1c0.4,0.3,0.6,0.8,0.7,1.4c0,0.7,0.2,1.2,0.2,1.8l26.5,15.3
	c1,0.5,2.2,0.5,3.2,0l27.5-15.8c0.8-0.5,1.1-1.5,0.7-2.3C67.1,16.4,66.8,16.1,66.6,16.1z"/>
<path class="st0" d="M40.7,37.2l27.5-15.8c0.8-0.5,1.8-0.2,2.3,0.6c0,0,0,0,0,0.1c0.1,0.3,0.2,0.7,0.2,1v31.6c0,1.1-0.6,2.2-1.6,2.7
	L41.7,73.1c-0.8,0.5-1.8,0.2-2.2-0.6c0,0,0-0.1,0-0.1c-0.2-0.2-0.2-0.5-0.2-0.9V39.9C39,38.8,39.7,37.7,40.7,37.2z"/>
<path class="st1" d="M49.2,39.5c0.2-1.7,1.1-3.2,2.5-4.1c1.4-0.9,2.5-0.2,2.5,1.2c-0.2,1.7-1.1,3.2-2.5,4.2
	C50.3,41.3,49.2,40.8,49.2,39.5z"/>
<linearGradient id="SVGID_1_" gradientUnits="userSpaceOnUse" x1="49.1983" y1="-38.4329" x2="49.1983" y2="19.5371" gradientTransform="matrix(1 0 0 -1 -31 34.67)">
	<stop  offset="0" style="stop-color:#0054D4"/>
	<stop  offset="1" style="stop-color:#00D3FF"/>
</linearGradient>
<path class="st2" d="M34.6,37.2L7.3,21.4C8.4,19.3,8,16.7,6.4,15c-3,0.7-2.3,4.3-2.3,4.3C2.7,18.7,1.1,19,0,20
	c0.8,2,2.7,3.3,4.8,3.2v31.1c0,1.1,0.6,2.2,1.6,2.7l27.5,15.8c0.8,0.5,1.8,0.2,2.2-0.6c0,0,0-0.1,0-0.1c0.2-0.2,0.3-0.4,0.2-0.7
	V39.9C36.4,38.7,35.7,37.6,34.6,37.2z"/>
<linearGradient id="SVGID_2_" gradientUnits="userSpaceOnUse" x1="77.64" y1="-14.44" x2="101.39" y2="-14.44" gradientTransform="matrix(1 0 0 -1 -31 34.67)">
	<stop  offset="0" style="stop-color:#2D7F56"/>
	<stop  offset="1" style="stop-color:#27B4A4"/>
</linearGradient>
<path class="st3" d="M51.5,66.9c1.4-1.7,2.5-3.7,3.2-5.7c0,0.2,0.7,0.5,0.7,1.2c0,0.5,0.5,0.7,0.9,0.7c0.2,0,0.5-0.1,0.7-0.2
	c2.5-4.3,0.7-10.1,0-11.9c0-2.1,0.2-4.2,0.7-6.2c1.1-4.4,4-8.1,8-10.3c2.3-1.4,4-3.6,4.8-6.2l-16,12.4c0-1.2-7.8,29.3-7.8,29.3
	L51.5,66.9z"/>
<linearGradient id="SVGID_3_" gradientUnits="userSpaceOnUse" x1="85.8996" y1="-38.36" x2="85.8996" y2="13.5788" gradientTransform="matrix(1 0 0 -1 -31 34.67)">
	<stop  offset="0" style="stop-color:#0054D4"/>
	<stop  offset="1" style="stop-color:#00D3FF"/>
</linearGradient>
<path class="st4" d="M68.2,21.4L40.7,37.2c-1,0.6-1.6,1.6-1.6,2.8v31.6c0,0.9,0.7,1.6,1.5,1.6c0,0,0.1,0,0.1,0
	c0.3,0,0.6-0.1,0.9-0.2l5.3-3c3.9-2.2,7.8-9.8,7.8-10c0.2,0.7,0.3,1.4,0.2,2.1c0,0.4,0.3,0.7,0.7,0.7c0.3,0,0.5-0.1,0.7-0.2
	c3-4.6,0.7-10.8,0.4-11.2c0.2-2.2,0.5-4.3,1.2-6.4c1.2-4.3,4.1-8,8-10.1c2.2-1.4,3.9-3.6,4.8-6.1V23c0.1-0.9-0.6-1.7-1.5-1.8
	C68.9,21.1,68.5,21.2,68.2,21.4z M49.2,39.5c0.2-1.7,1.1-3.2,2.5-4.1c1.4-0.9,2.5-0.2,2.5,1.2c-0.2,1.7-1.1,3.2-2.5,4.2
	C50.3,41.3,49.2,40.8,49.2,39.5z"/>
<path class="st1" d="M110,28.3c0,1.1-0.1,2.2-0.3,3.2l-0.3,1.5c-0.6,2.8-2.1,3.9-4.6,4.2c2.6,0.4,3.6,1.5,3.6,3.6
	c-0.1,1.1-0.2,2.1-0.4,3.2l-0.4,2.3c-0.1,1.8-1,3.5-2.5,4.6c-1.3,0.9-3.2,1.1-5.4,1.1H88.2L93,24.3h9.8
	C107.9,24.3,110,24.8,110,28.3z M103.6,40.7c0-1.4-1-1.4-2.9-1.4h-5.4l-1.5,8.9h5.3c2.9,0,3.4-1,3.9-3.4l0.3-1.8
	C103.4,42.2,103.5,41.5,103.6,40.7z M105,29.9c0-1.5-0.8-1.6-3.4-1.6h-4.4l-1.3,7.5h4.8c2.8,0,3.4-0.5,3.8-2.6l0.3-1.5
	C104.9,31,105,30.4,105,29.9z"/>
<path class="st1" d="M109.7,48c0.1-1.6,0.3-3.1,0.6-4.7l3.6-20.5h4.6l-3.6,20.5c-0.3,1.2-0.4,2.4-0.5,3.6c0,1.4,0.9,1.5,3.3,1.5h2.1
	l-1.6,3.7h-2.6C111.5,52.1,109.7,51.1,109.7,48z"/>
<path class="st1" d="M140.7,31.3L137,52.1h-10.2c-4.6,0-6.2-1-6.2-3.7c0.1-1.5,0.3-3,0.6-4.5l2.2-12.6h4.5l-2.2,12.2
	c-0.2,1.1-0.4,2.1-0.4,3.2c0,1.1,0.6,1.5,3,1.5h4.8l3-17L140.7,31.3z"/>
<path class="st1" d="M159.2,35.1c0,0.5-0.1,1.1-0.1,1.6l-0.5,2.9c-0.6,3.3-1.8,4.4-4.8,4.4h-8.1l-0.2,1.1c-0.1,0.5-0.2,1.1-0.2,1.6
	c0,1.3,0.7,1.6,2.8,1.6h7.4l-1.5,3.7h-6.7c-4.8,0-6.4-1.2-6.4-4.2c0-0.9,0.1-1.7,0.2-2.6l1.4-8.2c0.3-1.6,0.7-3.4,2.1-4.6
	c1.4-1.2,3.1-1.5,6.3-1.5h2.5C157.2,31,159.2,32.1,159.2,35.1z M154.6,35.9c0-1-0.6-1.2-2.2-1.2h-2.6c-1.7,0-2.5,0.2-2.9,2.4
	l-0.6,3.4h6.2c0.7,0.1,1.4-0.4,1.6-1.1c0-0.1,0-0.2,0-0.2l0.4-2.4C154.6,36.5,154.6,36.2,154.6,35.9z"/>
<path class="st1" d="M171.8,40.7l4.2,11.4h-4.9l-3.3-9.2h-3.1l-1.6,9.2h-4.5l5.1-29.2h4.5l-2.9,16.4h2.9l6.2-7.9h5L171.8,40.7z"/>
<path class="st1" d="M180.6,31.3h4.5l-3.6,20.8H177L180.6,31.3z M182,23.2h4.7l-0.8,4.7h-4.7L182,23.2z"/>
<path class="st1" d="M204.7,35c-0.1,1.5-0.3,3-0.6,4.5L202,52.1h-4.5l2.2-12.2c0.2-1.1,0.4-2.1,0.4-3.2c0-1.1-0.6-1.5-3-1.5h-4.7
	l-3,17h-4.5l3.6-20.8h10C203.1,31.3,204.7,32.3,204.7,35z"/>
<path class="st1" d="M224.8,35.8c0,1.3-0.2,2.6-0.4,3.9l-2.3,12.9c-0.9,5-3,6-7.3,6h-7.9l-0.7-3.7h7.6c2.9,0,3.3-0.2,3.9-3.4
	l0.3-1.4h-5.2c-4.6,0-6.6-1.3-6.6-4.8c0.1-1.3,0.2-2.6,0.5-3.9l0.5-3c0.5-2.7,0.9-4.5,2.3-5.7c1.4-1.2,3.1-1.5,6.3-1.5h2.5
	C222.9,31,224.8,32.3,224.8,35.8z M218.6,46.3l1.1-6.5c0.2-1,0.4-2.1,0.4-3.2c0-1.6-0.8-1.9-3.2-1.9h-1.5c-1-0.1-1.9,0.1-2.7,0.7
	c-0.6,0.8-1,1.8-1.1,2.8l-0.6,3c-0.2,1-0.4,2.1-0.4,3.2c0,1.6,0.8,1.9,3.2,1.9L218.6,46.3z"/>
<path class="st1" d="M233.1,46.6c0-1.5,0.2-3,0.5-4.5l1.9-10.6c0.5-3.1,1.3-5,2.9-6c1.6-0.9,3.4-1.2,5.2-1.1h9.2l-1.7,4.1h-6.9
	c-2.9,0-3.5,1.2-4.1,4.8l-1.3,7.3c-0.4,1.7-0.6,3.4-0.7,5.2c0,2,1.3,2.3,4.4,2.3h6.8l-1.7,4.1h-7.1
	C235.3,52.1,233.1,50.7,233.1,46.6z"/>
<path class="st1" d="M250.9,47.5c0.1-1.3,0.2-2.6,0.5-3.9l1-5.4c0.5-2.7,0.9-4.5,2.3-5.7c1.4-1.2,3.1-1.5,6.3-1.5h2.5
	c4.7,0,6.6,1.3,6.6,4.8c0,1.3-0.2,2.6-0.4,3.9l-1,5.4c-0.5,2.7-1,4.5-2.3,5.7s-3.1,1.5-6.3,1.5h-2.5C252.8,52.3,250.9,51,250.9,47.5
	z M260.3,48.6c1.3,0,2.1-0.1,2.7-0.7c0.6-0.8,0.9-1.8,1-2.7l1-5.4c0.2-1,0.4-2.1,0.4-3.2c0-1.6-0.8-1.9-3.2-1.9h-1.6
	c-1-0.1-1.9,0.1-2.7,0.7c-0.6,0.8-0.9,1.8-1,2.8l-1,5.4c-0.2,1-0.4,2.1-0.4,3.2c0,1.6,0.8,1.9,3.2,1.9L260.3,48.6z"/>
<path class="st1" d="M290,35c-0.1,1.5-0.3,3-0.6,4.5l-2.2,12.6h-4.5l2.2-12.2c0.2-1.1,0.4-2.1,0.4-3.2c0-1.1-0.6-1.5-3-1.5h-4.6
	l-3,17h-4.5l3.6-20.8h10C288.4,31.3,290,32.3,290,35z"/>
<path class="st1" d="M297.4,43.3c-0.3,1.2-0.4,2.4-0.5,3.6c0,1.4,0.9,1.5,3.3,1.5h2.5l-1.6,3.7h-2.7c-4.1,0-6.2-1.1-6.2-4.3
	c0.1-1.5,0.3-3,0.6-4.4l1.5-8.3h-2.7l0.7-3.7h2.8l1.1-6.2h4.5l-1.1,6.2h5.8l-0.7,3.7h-5.8L297.4,43.3z"/>
<path class="st1" d="M322.7,35.1c-0.1,1.2-0.2,2.4-0.5,3.6l-2.3,13.4h-11c-2.4,0-4.7-0.7-4.7-3.6c0-1.2,0.2-2.3,0.4-3.4l0.3-1.3
	c0.5-2.8,1.4-4,3.1-4.4c1.4-0.3,2.8-0.4,4.2-0.3h5.5l0,0c0.2-0.8,0.3-1.7,0.4-2.5c0-1.1-0.6-1.5-2.7-1.5H308l-0.6-3.7h9.5
	C321.1,31.3,322.7,32.4,322.7,35.1z M316.1,48.4l1-5.9h-5.8c-1.5,0-1.9,0.4-2.1,1.8l-0.1,0.7c-0.2,1.2-0.3,2.1-0.3,2.5
	c0,0.6,0.4,0.8,1.4,0.8H316.1z"/>
<path class="st1" d="M326.8,31.3h4.5l-3.6,20.8h-4.5L326.8,31.3z M328.2,23.2h4.7l-0.9,4.7h-4.7L328.2,23.2z"/>
<path class="st1" d="M350.9,35c-0.1,1.5-0.3,3-0.6,4.5l-2.2,12.6h-4.5l2.2-12.2c0.2-1.1,0.4-2.1,0.4-3.2c0-1.1-0.6-1.5-3-1.5h-4.6
	l-3,17h-4.5l3.6-20.8h10C349.3,31.3,350.9,32.3,350.9,35z"/>
<path class="st1" d="M370.3,35.1c0,0.5,0,1.1-0.1,1.6l-0.5,2.9c-0.6,3.3-1.8,4.4-4.8,4.4h-8.1l-0.2,1.1c-0.1,0.5-0.2,1.1-0.2,1.6
	c0,1.3,0.7,1.6,2.8,1.6h7.4l-1.5,3.7h-6.7c-4.8,0-6.5-1.2-6.5-4.2c0-0.9,0.1-1.7,0.3-2.6l1.4-8.2c0.3-1.6,0.7-3.4,2.1-4.6
	c1.4-1.2,3.1-1.5,6.3-1.5h2.5C368.3,31,370.3,32.1,370.3,35.1z M365.7,35.9c0-1-0.5-1.2-2.2-1.2h-2.6c-1.7,0-2.5,0.2-2.9,2.4
	l-0.6,3.4h6.2c0.7,0.1,1.4-0.4,1.6-1.1c0-0.1,0-0.2,0-0.2l0.4-2.4C365.7,36.5,365.7,36.2,365.7,35.9z"/>
<path class="st1" d="M371.7,38c1-5.7,2.3-6.7,8.1-6.7h5.1l-1.6,3.8h-3.3c-2.6,0-3.2,0.4-3.7,3.2l-2.5,13.8h-4.6L371.7,38z"/>
<path class="st1" d="M390.4,48h9.4c2.4,0,2.8-0.2,3.3-2.8l0.4-1.9c0.2-0.8,0.3-1.7,0.3-2.5c0-0.8-0.5-0.9-1.8-0.9h-5.5
	c-3,0-4-1.1-4-3.4c0-0.9,0.1-1.9,0.3-2.8l0.7-3.9c0.8-4.4,2.2-5.4,6.8-5.4h10.9l-1.7,4h-8.9c-1.7,0-2,0.4-2.3,2.2l-0.4,2.3
	c-0.1,0.7-0.2,1.3-0.3,2c0,0.6,0.5,0.8,1.5,0.8h4.7c3.1,0,5.1,0.4,5.1,3.2c-0.1,1.3-0.2,2.7-0.5,4l-0.7,3.7
	c-0.4,2.2-1.1,3.8-2.5,4.7s-3,0.9-5.5,0.9h-8.5L390.4,48z"/>
<path class="st1" d="M428.2,35.1c0,0.5,0,1.1-0.1,1.6l-0.5,2.9c-0.6,3.3-1.8,4.4-4.8,4.4h-8.1l-0.2,1.1c-0.1,0.5-0.2,1.1-0.2,1.6
	c0,1.3,0.7,1.6,2.8,1.6h7.4l-1.5,3.7h-6.7c-4.8,0-6.5-1.2-6.5-4.2c0-0.9,0.1-1.7,0.3-2.6l1.4-8.2c0.3-1.6,0.7-3.4,2.1-4.6
	c1.4-1.2,3.1-1.5,6.3-1.5h2.5C426.1,31,428.2,32.1,428.2,35.1z M423.6,35.9c0-1-0.5-1.2-2.2-1.2h-2.6c-1.7,0-2.5,0.2-2.9,2.4
	l-0.6,3.4h6.2c0.7,0.1,1.4-0.4,1.6-1.1c0-0.1,0-0.2,0-0.2l0.4-2.4C423.5,36.5,423.6,36.2,423.6,35.9L423.6,35.9z"/>
<path class="st1" d="M429.6,38c1-5.7,2.3-6.7,8.1-6.7h5.1l-1.6,3.8h-3.3c-2.6,0-3.2,0.4-3.7,3.2l-2.5,13.8h-4.6L429.6,38z"/>
<path class="st1" d="M461,31.3l-11.2,20.8h-5.5l-2.5-20.8h4.5l1.8,15.9l8.3-15.9L461,31.3z"/>
<path class="st1" d="M461.1,31.3h4.5l-3.6,20.8h-4.5L461.1,31.3z M462.5,23.2h4.7l-0.8,4.7h-4.7L462.5,23.2z"/>
<path class="st1" d="M465.8,47.3c0.1-1.3,0.2-2.6,0.5-3.9l0.8-4.8c0.5-2.7,1-4.6,2.3-5.8c1.3-1.2,3.1-1.5,6.3-1.5h6.8L481,35h-5.5
	c-1-0.1-1.9,0.1-2.7,0.7c-0.6,0.8-0.9,1.8-1,2.8l-0.9,4.9c-0.2,1-0.4,2.1-0.4,3.2c0,1.6,0.8,1.9,3.2,1.9h6.3l-1.6,3.7h-6
	C467.8,52.1,465.8,50.7,465.8,47.3z"/>
<path class="st1" d="M500,35.1c0,0.5-0.1,1.1-0.2,1.6l-0.5,2.9c-0.6,3.3-1.8,4.4-4.8,4.4h-8.1l-0.2,1.1c-0.1,0.5-0.2,1.1-0.2,1.6
	c0,1.3,0.7,1.6,2.8,1.6h7.4l-1.5,3.7H488c-4.8,0-6.5-1.2-6.5-4.2c0-0.9,0.1-1.7,0.3-2.6l1.4-8.2c0.3-1.6,0.7-3.4,2.1-4.6
	c1.4-1.2,3.1-1.5,6.3-1.5h2.5C498,31,500,32.1,500,35.1z M495.4,35.9c0-1-0.5-1.2-2.2-1.2h-2.6c-1.7,0-2.5,0.2-2.9,2.4l-0.6,3.4h6.2
	c0.7,0.1,1.4-0.4,1.6-1.1c0-0.1,0-0.2,0-0.2l0.4-2.4C495.4,36.5,495.4,36.2,495.4,35.9z"/>
</svg>
