<svg id="BCS" xmlns="http://www.w3.org/2000/svg" xmlns:xlink="http://www.w3.org/1999/xlink" viewBox="0 0 157.22 31.97"><defs><style>.cls-1{fill:#fff;}.cls-2{fill:#d4fbff;}.cls-3{fill:url(#未命名的渐变_51);}.cls-4{opacity:0.3;fill:url(#未命名的渐变_34);}.cls-5{fill:url(#未命名的渐变_51-2);}</style><linearGradient id="未命名的渐变_51" x1="7.91" y1="31.97" x2="7.91" y2="6.65" gradientUnits="userSpaceOnUse"><stop offset="0" stop-color="#0054d4"/><stop offset="1" stop-color="#00d3ff"/></linearGradient><linearGradient id="未命名的渐变_34" x1="20.38" y1="21.48" x2="30.76" y2="21.48" gradientUnits="userSpaceOnUse"><stop offset="0" stop-color="#2d7f56"/><stop offset="1" stop-color="#27b4a4"/></linearGradient><linearGradient id="未命名的渐变_51-2" x1="23.91" y1="31.97" x2="23.91" y2="9.27" xlink:href="#未命名的渐变_51"/></defs><title>容器管理+文字-01</title><path class="cls-1" d="M51.08,21.69h1.24l-.2,1.25H38.2l.21-1.25h1.14l.57-3.75H50.5c.81,0,1.08.18,1,1.07Zm-9.71-4.52H39.75l.63-4.3H42Zm12.38-6.88-.17,1.27H50.05l-.11.86H48.28l.11-.86h-3.5l-.11.86H43.11l.11-.86H40l.22-1.29h3.23L43.58,9h1.66l-.17,1.26h3.54L48.78,9h1.64l-.17,1.26ZM41.2,21.69h1.72l.41-2.58H41.61Zm4-9.09-.68,5H42.76l.75-5Zm1.36,6.53H44.87l-.38,2.58h1.64Zm1.87-5.74h4.69l-.19,1.26H47.81a25.53,25.53,0,0,1-1.28,2.28H44.6a26.73,26.73,0,0,0,2.46-4.4h1.67Zm1.14,5.77H48.11l-.37,2.58h1.72l.29-2.33c0-.22,0-.28-.22-.28Zm2.69-1.7H50.28c-.56-.69-1.18-1.53-1.83-2.49h1.72A26.16,26.16,0,0,0,52.22,17.46Z" transform="translate(0 0)"/><path class="cls-1" d="M62.54,18.25A29.18,29.18,0,0,1,60.66,22H58.77a5.22,5.22,0,0,1,.33-.45c-1.9.45-3.74.86-5.74,1.24l.19-1.36c1.94-.34,4-.81,6-1.32l-.12.86a21,21,0,0,0,1.47-2.77Zm-8.3,1.5L55,13.82c-.25.18-.48.37-.72.53l.44-2.06A7.54,7.54,0,0,0,57,9h1.47a8.43,8.43,0,0,1-.39,1h1.57c.45,0,.6.15.6.47A2.5,2.5,0,0,1,60,11.58,15.93,15.93,0,0,1,59.1,13h.23c1,0,1.1.29,1,1.16l-.74,5.58Zm1.6-1.25h.6l.21-1.56H56ZM55.93,13H57.6c.29-.49.6-1.06.81-1.51,0-.11.06-.14,0-.14H57.33A11.7,11.7,0,0,1,55.92,13ZM57,14.26h-.62l-.19,1.39h.62Zm1.39,4.21.2-1.55h-.66l-.19,1.55Zm.39-4.21h-.48l-.19,1.39h.63l.16-1.19C58.92,14.33,58.89,14.26,58.79,14.26Zm8.85-.4-.57,3.56H64.65L64,22.93H61.39l-.32-1.4h1.42l.58-4.11H60.61l.65-4.59h5.58c.66,0,.91.34.8,1.05Zm1-3.32-.2,1.36h-7.8l.16-1.33h2.86c-.09-.52-.2-1-.26-1.55h1.72c.08.48.17,1,.29,1.55ZM65.8,14.17H62.64l-.27,2h3.29L66,14.41C66,14.26,65.91,14.17,65.8,14.17Zm.65,4.08A25.84,25.84,0,0,0,67.52,22h-1.8c-.31-1.22-.59-2.49-.86-3.78Z" transform="translate(0 0)"/><path class="cls-1" d="M82.87,18.68H80.66v.4l-.45,3.86h-10l.6-4.26H68.56a54.42,54.42,0,0,0,5.72-4.3H77.5a1,1,0,0,1,.86.27C79.36,15.68,81.4,17.49,82.87,18.68Zm-7-6.6a31,31,0,0,1-3.6,2.86H69.61a27,27,0,0,0,4.11-2.86Zm7.28-1.2-.29,2.18H81.25l.21-1.38c0-.13,0-.17-.12-.17H71.6l-.19,1.56H69.74l.39-2.9h5.56A11.26,11.26,0,0,1,75.37,9h1.94a10.09,10.09,0,0,0,.33,1.16h4.87C83.11,10.17,83.26,10.36,83.18,10.88Zm-4.58,8.3H72.53l-.34,2.36h6.38l.25-2.12c.06-.15,0-.24-.19-.24Zm-6.17-1.37h7c-.79-.7-1.5-1.4-2.08-2a.4.4,0,0,0-.32-.16H75.18a31.46,31.46,0,0,1-2.73,2.15Zm7.74-2.87c-.8-.64-2.2-1.83-3.3-2.86h2.18a39.37,39.37,0,0,0,3.71,2.86Z" transform="translate(0 0)"/><path class="cls-1" d="M83.72,18.08a23.38,23.38,0,0,0,5.81-2.27H84.8L85,14.53h5.39a4.84,4.84,0,0,0,.16-.86h1.87a5.61,5.61,0,0,1-.13.86H94a7.45,7.45,0,0,1-.38-.86h1.8c.13.29.27.58.42.86h2l-.19,1.28H91.59a10,10,0,0,1-4.11,2.27Zm6.38,1.5-.48,3.24H84l.7-4.38H89C90.06,18.44,90.23,18.7,90.1,19.58ZM91,13.36H85.33L86,9.13h4.3c1,0,1.2.28,1.08,1.15ZM88.38,19.7H86.06l-.26,1.82h2.38l.27-1.66c0-.11,0-.16-.11-.16Zm1.29-9.3H87.42l-.25,1.72H89.5l.23-1.57a.11.11,0,0,0-.12-.15Zm7.46,9.18-.5,3.24H90.87l.67-4.38h4.52c1,0,1.15.27,1,1.14Zm-3.19-3.44a38.36,38.36,0,0,0,4.3,1.92H94.88a33.57,33.57,0,0,1-3.54-1.92Zm4.36-5.88-.51,3.1H92.1l.62-4.23h4.46c1,0,1.19.28,1.06,1.15Zm-3,9.46H93l-.26,1.81h2.49l.27-1.66c0-.12-.08-.17-.2-.17Zm1.2-9.3H94.2L94,12.14H96.4l.25-1.57c0-.12-.09-.17-.19-.17Z" transform="translate(0 0)"/><path class="cls-1" d="M112.82,14.26l-.22,1.29H111a.77.77,0,0,1,0,.37l-.39,2.58h-8.36l-.11.86h8.07c.86,0,1.13.22,1.06.86L110.94,23h-11L101,15.54H99.36L99.74,13h5.9c-.1-.24-.19-.47-.25-.67h1.8a7.19,7.19,0,0,1,.31.67h4.25C112.78,13,113,13.2,112.82,14.26Zm-11.41-1.81h-2A22.7,22.7,0,0,0,101.91,9h1.9c-.17.27-.33.54-.52.86H107l-.22,1.24h-2a6,6,0,0,0,.54,1h-1.84a8.12,8.12,0,0,1-.38-1h-.66Zm9.46,1.72h-9.64l-.11.86H110a1.1,1.1,0,0,1,.86.25l.17-.91c.06-.11,0-.17-.17-.17ZM102,20.52l-.17,1.24h7.54l.13-1c0-.09-.05-.2-.25-.2Zm6.88-4.3h-6.33l-.15,1H109l.13-.81c.06-.11,0-.19-.17-.19Zm4.89-6.41-.19,1.24h-2.33c.16.37.32.73.55,1.19H110c-.13-.31-.31-.81-.44-1.19h-.86c-.25.32-.51.66-.77,1h-2.06a17.82,17.82,0,0,0,2.43-3h1.86c-.17.29-.36.55-.54.86Z" transform="translate(0 0)"/><path class="cls-1" d="M118.63,19.86c-1.72.62-3.67,1.32-5.28,1.78l.22-1.56,1.72-.49.56-4.17h-1.47l.21-1.32H116l.48-3.22H114.8L115,9.57h4.84l-.21,1.31h-1.48l-.42,3.25h1.44l-.2,1.31h-1.45L117,19c.6-.2,1.24-.42,1.84-.65Zm9.52-9.69-.91,6.29h-3L124,18.24h3l-.19,1.23h-3l-.29,2.07h3.68l-.2,1.28H118l.2-1.28h3.7l.3-2.06h-3l.19-1.24h3l.25-1.78h-3l1.08-7.33h6.41C128.07,9.13,128.28,9.32,128.15,10.17Zm-5.36,5.08.29-1.91h-1.41l-.3,1.91Zm-.66-4.91-.26,1.84h1.4l.26-1.84Zm3.7,4.91.28-1.91h-1.44l-.26,1.91Zm.52-4.91h-1.26l-.27,1.84h1.45l.24-1.67C126.53,10.4,126.5,10.34,126.35,10.34Z" transform="translate(0 0)"/><path class="cls-1" d="M142.37,10.54h-5.22l-.78,5.53h6l-.21,1.3h-6l-.74,5.34h-1.79l.77-5.34h-5.67l.21-1.3h5.61l.8-5.53h-4.9l.19-1.3H142.6Zm-8.64,4.72h-1.79c-.34-1.08-.71-2.38-1.1-3.9h1.65c.25.9.66,2.2,1.24,3.87Zm3.83,0a19.55,19.55,0,0,0,2-3.9h1.66a32.71,32.71,0,0,1-1.79,3.9Z" transform="translate(0 0)"/><path class="cls-1" d="M153.94,14.89H143.22A68.72,68.72,0,0,0,148.53,9h2.25a54.31,54.31,0,0,1-4,4.48H154c-.58-1-1.2-2-1.72-3h1.83c.86,1.46,2.15,3.36,3.12,4.88h-2.11c-.23-.44-.5-.86-.76-1.33Zm1.27,2.9-.68,5.15H143.46l.94-6.42h9.82c1,0,1.11.32,1,1.27Zm-2,.12H146l-.46,3.63h7.44l.44-3.39c0-.15,0-.24-.19-.24Z" transform="translate(0 0)"/><path class="cls-2" d="M29.09,7.08,17.14.19a1.42,1.42,0,0,0-1.41,0l-12,6.89a1.63,1.63,0,0,1,.27.66,3.31,3.31,0,0,1,.06.75l11.62,6.7a1.42,1.42,0,0,0,1.41,0l12-6.89A.7.7,0,0,0,29.09,7.08Z" transform="translate(0 0)"/><path class="cls-2" d="M17.76,16.26l12-6.9a.7.7,0,0,1,1.05.61V23.76a1.42,1.42,0,0,1-.7,1.22L18.11,31.87a.7.7,0,0,1-1.05-.61V17.48A1.39,1.39,0,0,1,17.76,16.26Z" transform="translate(0 0)"/><path class="cls-1" d="M21.52,17.26a2.38,2.38,0,0,1,1.14-1.8c.63-.36,1.13-.14,1.13.48a2.36,2.36,0,0,1-1.13,1.8C22,18.1,21.52,17.88,21.52,17.26Z" transform="translate(0 0)"/><path class="cls-3" d="M15.11,16.26,3.24,9.41a2.45,2.45,0,0,0-.37-2.76c-1.26.32-1,1.86-1,1.86C.66,8.15.08,8.66,0,8.81a2.12,2.12,0,0,0,2.11,1.35v13.6A1.42,1.42,0,0,0,2.81,25l12,6.89a.71.71,0,0,0,1.06-.61V17.48A1.4,1.4,0,0,0,15.11,16.26Z" transform="translate(0 0)"/><path class="cls-4" d="M22.49,29.34a9.29,9.29,0,0,0,1.42-2.52c0,.13.26.17.29.46a.36.36,0,0,0,.65.18c1.07-1.85.34-4.42,0-5.19a15.89,15.89,0,0,1,.33-2.69,7.24,7.24,0,0,1,3.45-4.51,4.84,4.84,0,0,0,2.1-2.67l-7,5.36c0-.47-3.41,12.8-3.41,12.8Z" transform="translate(0 0)"/><path class="cls-5" d="M29.71,9.36l-11.95,6.9a1.39,1.39,0,0,0-.7,1.22V31.26a.7.7,0,0,0,1.05.61l2.27-1.31c1.74-1,3.36-4.32,3.38-4.37a4.92,4.92,0,0,1,.08.9.32.32,0,0,0,.59.16c1.32-2,.29-4.75.22-4.95a17.18,17.18,0,0,1,.47-2.78,7.17,7.17,0,0,1,3.48-4.45,5.21,5.21,0,0,0,2.16-2.67V10A.7.7,0,0,0,29.71,9.36Zm-8.19,7.9a2.38,2.38,0,0,1,1.14-1.8c.63-.36,1.13-.14,1.13.48a2.36,2.36,0,0,1-1.13,1.8C22,18.1,21.52,17.88,21.52,17.26Z" transform="translate(0 0)"/></svg>